<svg width="67" height="65" viewBox="0 0 67 65" fill="none" xmlns="http://www.w3.org/2000/svg">
<defs>
<linearGradient id="paint0_linear_4_172" x1="421.2" y1="579.6" x2="520.2" y2="479.6" gradientUnits="userSpaceOnUse">
<stop stop-color="#D6F2FD"/>
<stop offset="1" stop-color="#E5F5FD"/>
</linearGradient>
<linearGradient id="paint1_linear_4_172" x1="1381" y1="841" x2="1861.01" y2="89.6751" gradientUnits="userSpaceOnUse">
<stop stop-color="#D6F2FD"/>
<stop offset="1" stop-color="#E5F5FD"/>
</linearGradient>
<linearGradient id="paint2_linear_4_172" x1="273" y1="1342.9" x2="666.443" y2="870.769" gradientUnits="userSpaceOnUse">
<stop stop-color="#D6F2FD"/>
<stop offset="1" stop-color="#E5F5FD"/>
</linearGradient>
<clipPath id="clip0_4_172">
<rect width="67" height="65" fill="white"/>
</clipPath>
</defs>
<g clip-path="url(#clip0_4_172)">
<path d="M43.2 53.6C45.9614 53.6 48.2 51.3614 48.2 48.6C48.2 45.8386 45.9614 43.6 43.2 43.6C40.4386 43.6 38.2 45.8386 38.2 48.6C38.2 51.3614 40.4386 53.6 43.2 53.6Z" fill="url(#paint0_linear_4_172)"/>
<path d="M13.3 36C5.9 36 0 30.1 0 22.9C0 15.7 5.9 9.89999 13.3 9.89999C13.3667 9.89999 13.4333 9.89999 13.5 9.89999C16.2 3.99999 22.2 -0.100006 29.1 -0.100006C37.9 -0.100006 45.2 6.49999 46.1 14.9C46.1667 14.9 46.2 14.9 46.2 14.9C52.2 14.9 57 19.6 57 25.4C57 31.2 52.2 36 46.2 36" fill="white"/>
<path d="M39.4 36C34.7 36 31 32.3 31 27.7C31 23.1 34.7 19.3 39.4 19.3C39.4 19.3 39.4333 19.3 39.5 19.3C41.2 15.6 45 13 49.4 13C54.9 13 59.5 17.2 60.1 22.5C60.1 22.5 60.1333 22.5 60.2 22.5C63.9 22.5 67 25.5 67 29.3C67 33 63.9 36 60.2 36" fill="url(#paint1_linear_4_172)"/>
<path d="M13 46.9C13 48 12.1 48.9 11 48.9C9.9 48.9 9 48 9 46.9C9 45.8 9.9 44.9 11 44.9C12.1 44.9 13 45.8 13 46.9ZM23 46.9C23 48 22.1 48.9 21 48.9C19.9 48.9 19 48 19 46.9C19 45.8 19.9 44.9 21 44.9C22.1 44.9 23 45.8 23 46.9ZM33 46.9C33 48 32.1 48.9 31 48.9C29.9 48.9 29 48 29 46.9C29 45.8 29.9 44.9 31 44.9C32.1 44.9 33 45.8 33 46.9ZM13 63C13 64.1 12.1 64.9 11 64.9C9.9 64.9 9 64.1 9 63C9 61.9 9.9 61 11 61C12.1 61 13 61.9 13 63V63ZM23 63C23 64.1 22.1 64.9 21 64.9C19.9 64.9 19 64.1 19 63C19 61.9 19.9 61 21 61C22.1 61 23 61.9 23 63V63ZM18 55.1C18 56.2 17.1 57 16 57C14.9 57 14 56.2 14 55.1C14 54 14.9 53.1 16 53.1C17.1 53.1 18 54 18 55.1ZM28 55.1C28 56.2 27.1 57 26 57C24.9 57 24 56.2 24 55.1C24 54 24.9 53.1 26 53.1C27.1 53.1 28 54 28 55.1Z" fill="url(#paint2_linear_4_172)"/>
</g>
</svg>
