<svg width="68" height="74" viewBox="0 0 68 74" fill="none" xmlns="http://www.w3.org/2000/svg">
<defs>
<linearGradient id="paint0_linear_5_196" x1="454.2" y1="678.6" x2="553.2" y2="578.6" gradientUnits="userSpaceOnUse">
<stop stop-color="#D6F2FD"/>
<stop offset="1" stop-color="#E5F5FD"/>
</linearGradient>
<linearGradient id="paint1_linear_5_196" x1="1164.64" y1="835.21" x2="2002.74" y2="-1.13695" gradientUnits="userSpaceOnUse">
<stop stop-color="#00CCFF"/>
<stop offset="1" stop-color="#5DDEFE"/>
</linearGradient>
<linearGradient id="paint2_linear_5_196" x1="598.5" y1="1633.4" x2="1772" y2="-224.649" gradientUnits="userSpaceOnUse">
<stop stop-color="#D6F2FD"/>
<stop offset="1" stop-color="#E5F5FD"/>
</linearGradient>
<linearGradient id="paint3_linear_5_196" x1="348" y1="1531.9" x2="741.443" y2="1059.77" gradientUnits="userSpaceOnUse">
<stop stop-color="#D6F2FD"/>
<stop offset="1" stop-color="#E5F5FD"/>
</linearGradient>
</defs>
<path d="M46.2 62.6C48.9614 62.6 51.2 60.3614 51.2 57.6C51.2 54.8386 48.9614 52.6 46.2 52.6C43.4386 52.6 41.2 54.8386 41.2 57.6C41.2 60.3614 43.4386 62.6 46.2 62.6Z" fill="url(#paint0_linear_5_196)"/>
<path d="M53.7 28.9C45.5 28.9 38.9 22.3 38.9 14.2C38.9 7.7 43.3 1.8 49.6 0C49.9 0 50.2 0 50.4 0.2C50.6 0.4 50.6 0.7 50.6 1C50.2 2.2 50 3.4 50 4.6C50 11.9 56 17.8 63.2 17.8C64.4667 17.8 65.7 17.6333 66.9 17.3C67.2 17.2 67.4 17.3 67.6 17.5C67.8 17.7 67.9 18 67.8 18.3C66 24.6 60.2 28.9 53.7 28.9V28.9Z" fill="url(#paint1_linear_5_196)"/>
<path d="M13.3 45C5.9 45 0 39.1 0 31.9C0 24.7 5.9 18.9 13.3 18.9C13.3667 18.9 13.4333 18.9 13.5 18.9C16.2 13 22.2 8.89999 29.1 8.89999C37.9 8.89999 45.2 15.5 46.1 23.9C46.1667 23.9 46.2 23.9 46.2 23.9C52.2 23.9 57 28.6 57 34.4C57 40.2 52.2 45 46.2 45" fill="url(#paint2_linear_5_196)"/>
<path d="M39.4 45C34.7 45 31 41.3 31 36.7C31 32.1 34.7 28.3 39.4 28.3C39.4 28.3 39.4333 28.3 39.5 28.3C41.2 24.6 45 22 49.4 22C54.9 22 59.5 26.2 60.1 31.5C60.1 31.5 60.1333 31.5 60.2 31.5C63.9 31.5 67 34.5 67 38.3C67 42 63.9 45 60.2 45" fill="white"/>
<path d="M16 55.9C16 57 15.1 57.9 14 57.9C12.9 57.9 12 57 12 55.9C12 54.8 12.9 53.9 14 53.9C15.1 53.9 16 54.8 16 55.9ZM26 55.9C26 57 25.1 57.9 24 57.9C22.9 57.9 22 57 22 55.9C22 54.8 22.9 53.9 24 53.9C25.1 53.9 26 54.8 26 55.9ZM36 55.9C36 57 35.1 57.9 34 57.9C32.9 57.9 32 57 32 55.9C32 54.8 32.9 53.9 34 53.9C35.1 53.9 36 54.8 36 55.9ZM16 72C16 73.1 15.1 73.9 14 73.9C12.9 73.9 12 73.1 12 72C12 70.9 12.9 70 14 70C15.1 70 16 70.9 16 72ZM26 72C26 73.1 25.1 73.9 24 73.9C22.9 73.9 22 73.1 22 72C22 70.9 22.9 70 24 70C25.1 70 26 70.9 26 72ZM21 64.1C21 65.2 20.1 66 19 66C17.9 66 17 65.2 17 64.1C17 63 17.9 62.1 19 62.1C20.1 62.1 21 63 21 64.1ZM31 64.1C31 65.2 30.1 66 29 66C27.9 66 27 65.2 27 64.1C27 63 27.9 62.1 29 62.1C30.1 62.1 31 63 31 64.1Z" fill="url(#paint3_linear_5_196)"/>
</svg>
