<svg width="65" height="34" viewBox="0 0 65 34" fill="none" xmlns="http://www.w3.org/2000/svg">
<defs>
<linearGradient id="paint0_linear_5_202" x1="1007.5" y1="1156" x2="1957.05" y2="-659.313" gradientUnits="userSpaceOnUse">
<stop stop-color="#00CCFF"/>
<stop offset="1" stop-color="#5DDEFE"/>
</linearGradient>
<clipPath id="clip0_5_202">
<rect width="65" height="34" fill="white"/>
</clipPath>
</defs>
<g clip-path="url(#clip0_5_202)">
<path d="M49.3 34C46.5 34 44.2 31.7 44.2 28.9C44.2 28.1667 44.3333 27.5 44.6 26.9H15.3C14.4 26.9 13.7 26.2 13.7 25.4C13.7 24.5 14.4 23.8 15.3 23.8H49.2C49.2 23.8 49.2333 23.8 49.3 23.8C52.1 23.8 54.4 26.1 54.4 28.9C54.4 31.7 52.1 34 49.3 34V34ZM59.9 25.2C57 25.2 54.7 22.9 54.7 20.1C54.7667 19.4333 54.9 18.8 55.1 18.2H1.5C0.7 18.2 0 17.5 0 16.6C0 15.7 0.7 15 1.5 15H59.7C59.7667 15 59.8 15 59.8 15C59.8 15 59.8333 15 59.9 15C62.7 15 65 17.3 65 20.1C65 22.9 62.7 25.2 59.9 25.2V25.2ZM54.4 5C54.4 7.9 52.1 10.1 49.3 10.1C49.2333 10.1 49.2 10.1 49.2 10.1H25.9C25 10.1 24.3 9.4 24.3 8.6C24.3 7.7 25 7 25.9 7H44.6C44.3333 6.4 44.2 5.73333 44.2 5C44.2 2.2 46.5 0 49.3 0C52.1 0 54.4 2.2 54.4 5Z" fill="url(#paint0_linear_5_202)"/>
</g>
</svg>
