<svg width="67" height="44" viewBox="0 0 67 44" fill="none" xmlns="http://www.w3.org/2000/svg">
<defs>
<linearGradient id="paint0_linear_5_352" x1="1139.5" y1="1156" x2="2089.05" y2="-659.313" gradientUnits="userSpaceOnUse">
<stop stop-color="#00CCFF"/>
<stop offset="1" stop-color="#5DDEFE"/>
</linearGradient>
<linearGradient id="paint1_linear_5_352" x1="272" y1="818" x2="539.957" y2="311.859" gradientUnits="userSpaceOnUse">
<stop stop-color="#D6F2FD"/>
<stop offset="1" stop-color="#E5F5FD"/>
</linearGradient>
</defs>
<path d="M51.3 34C48.5 34 46.2 31.7 46.2 28.9C46.2 28.1667 46.3333 27.5 46.6 26.9H17.3C16.4 26.9 15.7 26.2 15.7 25.4C15.7 24.5 16.4 23.8 17.3 23.8H51.2C51.2 23.8 51.2333 23.8 51.3 23.8C54.1 23.8 56.4 26.1 56.4 28.9C56.4 31.7 54.1 34 51.3 34V34ZM61.9 25.2C59 25.2 56.7 22.9 56.7 20.1C56.7667 19.4333 56.9 18.8 57.1 18.2H3.5C2.7 18.2 2 17.5 2 16.6C2 15.7 2.7 15 3.5 15H61.7C61.7667 15 61.8 15 61.8 15C61.8 15 61.8333 15 61.9 15C64.7 15 67 17.3 67 20.1C67 22.9 64.7 25.2 61.9 25.2V25.2ZM56.4 5C56.4 7.9 54.1 10.1 51.3 10.1C51.2333 10.1 51.2 10.1 51.2 10.1H27.9C27 10.1 26.3 9.4 26.3 8.6C26.3 7.7 27 7 27.9 7H46.6C46.3333 6.4 46.2 5.73333 46.2 5C46.2 2.2 48.5 0 51.3 0C54.1 0 56.4 2.2 56.4 5Z" fill="url(#paint0_linear_5_352)"/>
<path d="M2 33C3.1 33 4 33.9 4 35C4 36.1 3.1 37 2 37C0.9 37 0 36.1 0 35C0 33.9 0.9 33 2 33ZM12 33C13.1 33 14 33.9 14 35C14 36.1 13.1 37 12 37C10.9 37 10 36.1 10 35C10 33.9 10.9 33 12 33ZM22 33C23.1 33 24 33.9 24 35C24 36.1 23.1 37 22 37C20.9 37 20 36.1 20 35C20 33.9 20.9 33 22 33ZM32 33C33.1 33 34 33.9 34 35C34 36.1 33.1 37 32 37C30.9 37 30 36.1 30 35C30 33.9 30.9 33 32 33ZM9 42C9 43.1 8.1 44 7 44C5.9 44 5 43.1 5 42C5 40.9 5.9 40 7 40C8.1 40 9 40.9 9 42ZM19 42C19 43.1 18.1 44 17 44C15.9 44 15 43.1 15 42C15 40.9 15.9 40 17 40C18.1 40 19 40.9 19 42ZM29 42C29 43.1 28.1 44 27 44C25.9 44 25 43.1 25 42C25 40.9 25.9 40 27 40C28.1 40 29 40.9 29 42ZM7 30C5.9 30 5 29.1 5 28C5 26.9 5.9 26 7 26C8.1 26 9 26.9 9 28L7 30ZM9 28C9 29.1 8.1 30 7 30Z" fill="url(#paint1_linear_5_352)"/>
</svg>
