<svg width="46" height="54" viewBox="0 0 46 54" fill="none" xmlns="http://www.w3.org/2000/svg">
<defs>
<linearGradient id="paint0_linear_5_207" x1="-4.6937" y1="2488.69" x2="2103.84" y2="380.156" gradientUnits="userSpaceOnUse">
<stop stop-color="#00CCFF"/>
<stop offset="1" stop-color="#5DDEFE"/>
</linearGradient>
<linearGradient id="paint1_linear_5_207" x1="220.52" y1="61.02" x2="275.65" y2="5.88998" gradientUnits="userSpaceOnUse">
<stop stop-color="#FFBC27"/>
<stop offset="1" stop-color="#FDE252"/>
</linearGradient>
<linearGradient id="paint2_linear_5_207" x1="394.943" y1="288.92" x2="521.505" y2="163.198" gradientUnits="userSpaceOnUse">
<stop stop-color="#FFBC27"/>
<stop offset="1" stop-color="#FDE252"/>
</linearGradient>
<clipPath id="clip0_5_207">
<rect width="46" height="54" fill="white"/>
</clipPath>
</defs>
<g clip-path="url(#clip0_5_207)">
<path d="M23.3 54C10.4 54 -0.100006 43.5 -0.100006 30.6C-0.100006 20.2 6.89999 11 16.9 8.1C17.3 8 17.8 8.1 18.1 8.4C18.4 8.7 18.5 9.2 18.4 9.6C17.8667 11.5333 17.6 13.4667 17.6 15.4C17.6 26.9 27 36.3 38.5 36.3C40.4333 36.3 42.3667 36.0333 44.3 35.5C44.7 35.4 45.2 35.5 45.5 35.8C45.8 36.1 45.9 36.6 45.8 37C42.9 47 33.7 54 23.3 54V54Z" fill="url(#paint0_linear_5_207)"/>
<path d="M30.3 7.29999C30 8.39999 29.6 8.39999 29.3 7.29999C29 6.29999 27.9 5.19999 26.9 4.89999C25.8 4.59999 25.8 4.19999 26.9 3.89999C27.9 3.59999 29 2.49999 29.3 1.49999C29.6 0.399988 30 0.399988 30.3 1.49999C30.6 2.49999 31.7 3.59999 32.7 3.89999C33.8 4.19999 33.8 4.59999 32.7 4.89999C31.7 5.19999 30.6 6.29999 30.3 7.29999V7.29999Z" fill="url(#paint1_linear_5_207)"/>
<path d="M38.7 23.4C38.3 25 37.6 25 37.2 23.4C36.8 21.8 35.1 20.2 33.5 19.8C32 19.3 32 18.6 33.5 18.2C35.1 17.8 36.8 16.1 37.2 14.6C37.6 13 38.3 13 38.7 14.6C39.2 16.1 40.8 17.8 42.4 18.2C44 18.6 44 19.3 42.4 19.8C40.8 20.2 39.2 21.8 38.7 23.4Z" fill="url(#paint2_linear_5_207)"/>
</g>
</svg>
