<svg width="67" height="60" viewBox="0 0 67 60" fill="none" xmlns="http://www.w3.org/2000/svg">
<defs>
<linearGradient id="paint0_linear_5_211" x1="1381" y1="841" x2="1861.01" y2="89.6751" gradientUnits="userSpaceOnUse">
<stop stop-color="#D6F2FD"/>
<stop offset="1" stop-color="#E5F5FD"/>
</linearGradient>
<linearGradient id="paint1_linear_5_211" x1="1011.11" y1="983.689" x2="1164.03" y2="542.418" gradientUnits="userSpaceOnUse">
<stop stop-color="#00CCFF"/>
<stop offset="1" stop-color="#5DDEFE"/>
</linearGradient>
<clipPath id="clip0_5_211">
<rect width="67" height="60" fill="white"/>
</clipPath>
</defs>
<g clip-path="url(#clip0_5_211)">
<path d="M13.3 36C5.9 36 0 30.1 0 22.9C0 15.7 5.9 9.89999 13.3 9.89999C13.3667 9.89999 13.4333 9.89999 13.5 9.89999C16.2 3.99999 22.2 -0.100006 29.1 -0.100006C37.9 -0.100006 45.2 6.49999 46.1 14.9C46.1667 14.9 46.2 14.9 46.2 14.9C52.2 14.9 57 19.6 57 25.4C57 31.2 52.2 36 46.2 36" fill="white"/>
<path d="M39.4 36C34.7 36 31 32.3 31 27.7C31 23.1 34.7 19.3 39.4 19.3C39.4 19.3 39.4333 19.3 39.5 19.3C41.2 15.6 45 13 49.4 13C54.9 13 59.5 17.2 60.1 22.5C60.1 22.5 60.1333 22.5 60.2 22.5C63.9 22.5 67 25.5 67 29.3C67 33 63.9 36 60.2 36" fill="url(#paint0_linear_5_211)"/>
<path d="M9.3 52.7C8.9 52.7 8.56667 52.6333 8.3 52.5C7.3 51.9 7 50.7 7.5 49.8L10.4 44.9C11 44 12.2 43.7 13.2 44.2C14.1 44.8 14.5 46 13.9 46.9L11 51.8C10.6 52.4 10 52.7 9.3 52.7V52.7ZM25.5 52.7C25.1667 52.7 24.8333 52.6333 24.5 52.5C23.5 51.9 23.2 50.7 23.7 49.8L26.6 44.9C27.2 44 28.4 43.7 29.4 44.2C30.4 44.8 30.7 46 30.1 46.9L27.2 51.8C26.9 52.4 26.2 52.7 25.5 52.7V52.7ZM41.7 52.7C41.3667 52.7 41.0333 52.6333 40.7 52.5C39.7 51.9 39.4 50.7 40 49.8L42.9 44.9C43.4 44 44.7 43.7 45.6 44.2C46.6 44.8 46.9 46 46.4 46.9L43.4 51.8C43.1 52.4 42.4 52.7 41.7 52.7V52.7ZM14.3 59.7C13.9667 59.7 13.6333 59.6333 13.3 59.5C12.3 58.9 12 57.7 12.6 56.8L15.5 51.9C16 51 17.2 50.7 18.2 51.2C19.2 51.8 19.5 53 18.9 53.9L16 58.8C15.7 59.4 15 59.7 14.3 59.7V59.7ZM31 59.7C30.6667 59.7 30.3333 59.6333 30 59.5C29.1 58.9 28.7 57.7 29.3 56.8L32.2 51.9C32.7 51 34 50.7 34.9 51.2C35.9 51.8 36.2 53 35.7 53.9L32.8 58.8C32.4 59.4 31.7 59.7 31 59.7V59.7ZM47.7 59.7C47.3667 59.7 47.0333 59.6333 46.7 59.5C45.8 58.9 45.4 57.7 46 56.8L48.9 51.9C49.5 51 50.7 50.7 51.7 51.2C52.6 51.8 53 53 52.4 53.9L49.5 58.8C49.1 59.4 48.4 59.7 47.7 59.7V59.7Z" fill="url(#paint1_linear_5_211)"/>
</g>
</svg>
