<svg width="68" height="68" viewBox="0 0 68 68" fill="none" xmlns="http://www.w3.org/2000/svg">
<defs>
<linearGradient id="paint0_linear_5_215" x1="1164.64" y1="835.21" x2="2002.74" y2="-1.13695" gradientUnits="userSpaceOnUse">
<stop stop-color="#00CCFF"/>
<stop offset="1" stop-color="#5DDEFE"/>
</linearGradient>
<linearGradient id="paint1_linear_5_215" x1="598.5" y1="1596.3" x2="1772" y2="-261.749" gradientUnits="userSpaceOnUse">
<stop stop-color="#D6F2FD"/>
<stop offset="1" stop-color="#E5F5FD"/>
</linearGradient>
<linearGradient id="paint2_linear_5_215" x1="1150.38" y1="1117.62" x2="1303.29" y2="676.345" gradientUnits="userSpaceOnUse">
<stop stop-color="#00CCFF"/>
<stop offset="1" stop-color="#5DDEFE"/>
</linearGradient>
</defs>
<path d="M53.7 28.9C45.5 28.9 38.9 22.3 38.9 14.2C38.9 7.7 43.3 1.8 49.6 0C49.9 0 50.2 0 50.4 0.2C50.6 0.4 50.6 0.7 50.6 1C50.2 2.2 50 3.4 50 4.6C50 11.9 56 17.8 63.2 17.8C64.4667 17.8 65.7 17.6333 66.9 17.3C67.2 17.2 67.4 17.3 67.6 17.5C67.8 17.7 67.9 18 67.8 18.3C66 24.6 60.2 28.9 53.7 28.9V28.9Z" fill="url(#paint0_linear_5_215)"/>
<path d="M13.3 44C5.9 44 0 38.1 0 30.9C0 23.7 5.9 17.9 13.3 17.9C13.3667 17.9 13.4333 17.9 13.5 17.9C16.2 12 22.2 7.89999 29.1 7.89999C37.9 7.89999 45.2 14.5 46.1 22.9C46.1667 22.9 46.2 22.9 46.2 22.9C52.2 22.9 57 27.6 57 33.4C57 39.2 52.2 44 46.2 44" fill="url(#paint1_linear_5_215)"/>
<path d="M39.4 44C34.7 44 31 40.3 31 35.7C31 31.1 34.7 27.3 39.4 27.3C39.4 27.3 39.4333 27.3 39.5 27.3C41.2 23.6 45 21 49.4 21C54.9 21 59.5 25.2 60.1 30.5C60.1 30.5 60.1333 30.5 60.2 30.5C63.9 30.5 67 33.5 67 37.3C67 41 63.9 44 60.2 44" fill="white"/>
<path d="M12.3 60.7C11.9 60.7 11.5667 60.6333 11.3 60.5C10.3 59.9 10 58.7 10.5 57.8L13.4 52.9C14 52 15.2 51.7 16.2 52.2C17.1 52.8 17.5 54 16.9 54.9L14 59.8C13.6 60.4 13 60.7 12.3 60.7V60.7ZM28.5 60.7C28.1667 60.7 27.8333 60.6333 27.5 60.5C26.5 59.9 26.2 58.7 26.7 57.8L29.6 52.9C30.2 52 31.4 51.7 32.4 52.2C33.4 52.8 33.7 54 33.1 54.9L30.2 59.8C29.9 60.4 29.2 60.7 28.5 60.7V60.7ZM44.7 60.7C44.3667 60.7 44.0333 60.6333 43.7 60.5C42.7 59.9 42.4 58.7 43 57.8L45.9 52.9C46.4 52 47.7 51.7 48.6 52.2C49.6 52.8 49.9 54 49.4 54.9L46.4 59.8C46.1 60.4 45.4 60.7 44.7 60.7V60.7ZM17.3 67.7C16.9667 67.7 16.6333 67.6333 16.3 67.5C15.3 66.9 15 65.7 15.6 64.8L18.5 59.9C19 59 20.2 58.7 21.2 59.2C22.2 59.8 22.5 61 21.9 61.9L19 66.8C18.7 67.4 18 67.7 17.3 67.7ZM34 67.7C33.6667 67.7 33.3333 67.6333 33 67.5C32.1 66.9 31.7 65.7 32.3 64.8L35.2 59.9C35.7 59 37 58.7 37.9 59.2C38.9 59.8 39.2 61 38.7 61.9L35.8 66.8C35.4 67.4 34.7 67.7 34 67.7ZM50.7 67.7C50.3667 67.7 50.0333 67.6333 49.7 67.5C48.8 66.9 48.4 65.7 49 64.8L51.9 59.9C52.5 59 53.7 58.7 54.7 59.2C55.6 59.8 56 61 55.4 61.9L52.5 66.8C52.1 67.4 51.4 67.7 50.7 67.7Z" fill="url(#paint2_linear_5_215)"/>
</svg>
