<svg width="63" height="41" viewBox="0 0 63 41" fill="none" xmlns="http://www.w3.org/2000/svg">
<defs>
<linearGradient id="paint0_linear_5_220" x1="0" y1="1681" x2="1681" y2="0" gradientUnits="userSpaceOnUse">
<stop stop-color="#FFBC27"/>
<stop offset="1" stop-color="#FDE252"/>
</linearGradient>
</defs>
<path d="M20.5 41C31.8218 41 41 31.8218 41 20.5C41 9.17816 31.8218 0 20.5 0C9.17816 0 0 9.17816 0 20.5C0 31.8218 9.17816 41 20.5 41Z" fill="url(#paint0_linear_5_220)"/>
<path d="M33 20C33 21.1 32.1 22 31 22C29.9 22 29 21.1 29 20C29 18.9 29.9 18 31 18C32.1 18 33 18.9 33 20ZM43 20C43 21.1 42.1 22 41 22C39.9 22 39 21.1 39 20C39 18.9 39.9 18 41 18C42.1 18 43 18.9 43 20ZM53 20C53 21.1 52.1 22 51 22C49.9 22 49 21.1 49 20C49 18.9 49.9 18 51 18C52.1 18 53 18.9 53 20ZM63 20C63 21.1 62.1 22 61 22C59.9 22 59 21.1 59 20C59 18.9 59.9 18 61 18C62.1 18 63 18.9 63 20ZM43 34C43 35.1 42.1 36 41 36C39.9 36 39 35.1 39 34C39 32.9 39.9 32 41 32C42.1 32 43 32.9 43 34ZM53 34C53 35.1 52.1 36 51 36C49.9 36 49 35.1 49 34C49 32.9 49.9 32 51 32C52.1 32 53 32.9 53 34ZM28 27C28 28.1 27.1 29 26 29C24.9 29 24 28.1 24 27C24 25.9 24.9 25 26 25C27.1 25 28 25.9 28 27ZM38 27C38 28.1 37.1 29 36 29C34.9 29 34 28.1 34 27C34 25.9 34.9 25 36 25C37.1 25 38 25.9 38 27ZM48 27C48 28.1 47.1 29 46 29C44.9 29 44 28.1 44 27C44 25.9 44.9 25 46 25C47.1 25 48 25.9 48 27ZM58 27C58 28.1 57.1 29 56 29C54.9 29 54 28.1 54 27C54 25.9 54.9 25 56 25C57.1 25 58 25.9 58 27Z" fill="white"/>
</svg>
