<svg width="69" height="63" viewBox="0 0 69 63" fill="none" xmlns="http://www.w3.org/2000/svg">
<defs>
<linearGradient id="paint0_linear_5_227" x1="1194.58" y1="835.21" x2="2032.68" y2="-1.13693" gradientUnits="userSpaceOnUse">
<stop stop-color="#00CCFF"/>
<stop offset="1" stop-color="#5DDEFE"/>
</linearGradient>
<linearGradient id="paint1_linear_5_227" x1="598.5" y1="1596.3" x2="1772" y2="-261.749" gradientUnits="userSpaceOnUse">
<stop stop-color="#D6F2FD"/>
<stop offset="1" stop-color="#E5F5FD"/>
</linearGradient>
<linearGradient id="paint2_linear_5_227" x1="1220.4" y1="745" x2="1276.22" y2="516.645" gradientUnits="userSpaceOnUse">
<stop stop-color="#00CCFF"/>
<stop offset="1" stop-color="#5DDEFE"/>
</linearGradient>
</defs>
<path d="M54.7 28.9C46.5 28.9 39.9 22.3 39.9 14.2C39.9 7.7 44.3 1.8 50.6 0C50.9 0 51.2 0 51.4 0.2C51.6 0.4 51.6 0.7 51.6 1C51.2 2.2 51 3.4 51 4.6C51 11.9 57 17.8 64.2 17.8C65.4667 17.8 66.7 17.6333 67.9 17.3C68.2 17.2 68.4 17.3 68.6 17.5C68.8 17.7 68.9 18 68.8 18.3C67 24.6 61.2 28.9 54.7 28.9V28.9Z" fill="url(#paint0_linear_5_227)"/>
<path d="M13.3 44C5.9 44 0 38.1 0 30.9C0 23.7 5.9 17.9 13.3 17.9C13.3667 17.9 13.4333 17.9 13.5 17.9C16.2 12 22.2 7.89999 29.1 7.89999C37.9 7.89999 45.2 14.5 46.1 22.9C46.1667 22.9 46.2 22.9 46.2 22.9C52.2 22.9 57 27.6 57 33.4C57 39.2 52.2 44 46.2 44" fill="url(#paint1_linear_5_227)"/>
<path d="M39.4 44C34.7 44 31 40.3 31 35.7C31 31.1 34.7 27.3 39.4 27.3C39.4 27.3 39.4333 27.3 39.5 27.3C41.2 23.6 45 21 49.4 21C54.9 21 59.5 25.2 60.1 30.5C60.1 30.5 60.1333 30.5 60.2 30.5C63.9 30.5 67 33.5 67 37.3C67 41 63.9 44 60.2 44" fill="white"/>
<path d="M21.5 55H11.4C10.6 55 9.89999 54.3 9.89999 53.5C9.89999 52.7 10.6 52 11.4 52H21.5C22.4 52 23.1 52.7 23.1 53.5C23.1 54.3 22.4 55 21.5 55ZM43.3 55H28.1C27.3 55 26.6 54.3 26.6 53.5C26.6 52.7 27.3 52 28.1 52H43.3C44.1 52 44.8 52.7 44.8 53.5C44.8 54.3 44.1 55 43.3 55ZM31.6 63H11.4C10.6 63 9.89999 62.3 9.89999 61.5C9.89999 60.7 10.6 60 11.4 60H31.6C32.5 60 33.2 60.7 33.2 61.5C33.2 62.3 32.5 63 31.6 63V63ZM53.4 63H38.2C37.4 63 36.7 62.3 36.7 61.5C36.7 60.7 37.4 60 38.2 60H53.4C54.2 60 54.9 60.7 54.9 61.5C54.9 62.3 54.2 63 53.4 63V63Z" fill="url(#paint2_linear_5_227)"/>
</svg>
