<svg width="67" height="62" viewBox="0 0 67 62" fill="none" xmlns="http://www.w3.org/2000/svg">
<defs>
<linearGradient id="paint0_linear_5_232" x1="824.1" y1="1089.32" x2="1038.29" y2="610.533" gradientUnits="userSpaceOnUse">
<stop stop-color="#D6F2FD"/>
<stop offset="1" stop-color="#E5F5FD"/>
</linearGradient>
<linearGradient id="paint1_linear_5_232" x1="1381" y1="841" x2="1861.01" y2="89.6751" gradientUnits="userSpaceOnUse">
<stop stop-color="#D6F2FD"/>
<stop offset="1" stop-color="#E5F5FD"/>
</linearGradient>
<clipPath id="clip0_5_232">
<rect width="67" height="62" fill="white"/>
</clipPath>
</defs>
<g clip-path="url(#clip0_5_232)">
<path d="M20.7 49.8C20.7 52.5 18.5 54.7 15.8 54.7C13.1 54.7 10.9 52.5 10.9 49.8C10.9 47.1 13.1 44.9 15.8 44.9C18.5 44.9 20.7 47.1 20.7 49.8ZM48.9 49.8C48.9 52.5 46.7 54.7 44 54.7C41.3 54.7 39.1 52.5 39.1 49.8C39.1 47.1 41.3 44.9 44 44.9C46.7 44.9 48.9 47.1 48.9 49.8ZM35.3 56.9C35.3 59.6 33.1 61.8 30.4 61.8C27.7 61.8 25.5 59.6 25.5 56.9C25.5 54.2 27.7 52 30.4 52C33.1 52 35.3 54.2 35.3 56.9Z" fill="url(#paint0_linear_5_232)"/>
<path d="M13.3 36C5.9 36 0 30.1 0 22.9C0 15.7 5.9 9.89999 13.3 9.89999C13.3667 9.89999 13.4333 9.89999 13.5 9.89999C16.2 3.99999 22.2 -0.100006 29.1 -0.100006C37.9 -0.100006 45.2 6.49999 46.1 14.9C46.1667 14.9 46.2 14.9 46.2 14.9C52.2 14.9 57 19.6 57 25.4C57 31.2 52.2 36 46.2 36" fill="white"/>
<path d="M39.4 36C34.7 36 31 32.3 31 27.7C31 23.1 34.7 19.3 39.4 19.3C39.4 19.3 39.4333 19.3 39.5 19.3C41.2 15.6 45 13 49.4 13C54.9 13 59.5 17.2 60.1 22.5C60.1 22.5 60.1333 22.5 60.2 22.5C63.9 22.5 67 25.5 67 29.3C67 33 63.9 36 60.2 36" fill="url(#paint1_linear_5_232)"/>
</g>
</svg>
