<svg width="68" height="70" viewBox="0 0 68 70" fill="none" xmlns="http://www.w3.org/2000/svg">
<defs>
<linearGradient id="paint0_linear_5_236" x1="824.1" y1="1232.52" x2="1038.29" y2="753.734" gradientUnits="userSpaceOnUse">
<stop stop-color="#D6F2FD"/>
<stop offset="1" stop-color="#E5F5FD"/>
</linearGradient>
<linearGradient id="paint1_linear_5_236" x1="1164.64" y1="835.21" x2="2002.74" y2="-1.13695" gradientUnits="userSpaceOnUse">
<stop stop-color="#00CCFF"/>
<stop offset="1" stop-color="#5DDEFE"/>
</linearGradient>
<linearGradient id="paint2_linear_5_236" x1="598.5" y1="1633.4" x2="1772" y2="-224.649" gradientUnits="userSpaceOnUse">
<stop stop-color="#D6F2FD"/>
<stop offset="1" stop-color="#E5F5FD"/>
</linearGradient>
</defs>
<path d="M20.7 57.8C20.7 60.5 18.5 62.7 15.8 62.7C13.1 62.7 10.9 60.5 10.9 57.8C10.9 55.1 13.1 52.9 15.8 52.9C18.5 52.9 20.7 55.1 20.7 57.8ZM48.9 57.8C48.9 60.5 46.7 62.7 44 62.7C41.3 62.7 39.1 60.5 39.1 57.8C39.1 55.1 41.3 52.9 44 52.9C46.7 52.9 48.9 55.1 48.9 57.8ZM35.3 64.9C35.3 67.6 33.1 69.8 30.4 69.8C27.7 69.8 25.5 67.6 25.5 64.9C25.5 62.2 27.7 60 30.4 60C33.1 60 35.3 62.2 35.3 64.9Z" fill="url(#paint0_linear_5_236)"/>
<path d="M53.7 28.9C45.5 28.9 38.9 22.3 38.9 14.2C38.9 7.7 43.3 1.8 49.6 0C49.9 0 50.2 0 50.4 0.2C50.6 0.4 50.6 0.7 50.6 1C50.2 2.2 50 3.4 50 4.6C50 11.9 56 17.8 63.2 17.8C64.4667 17.8 65.7 17.6333 66.9 17.3C67.2 17.2 67.4 17.3 67.6 17.5C67.8 17.7 67.9 18 67.8 18.3C66 24.6 60.2 28.9 53.7 28.9V28.9Z" fill="url(#paint1_linear_5_236)"/>
<path d="M13.3 45C5.9 45 0 39.1 0 31.9C0 24.7 5.9 18.9 13.3 18.9C13.3667 18.9 13.4333 18.9 13.5 18.9C16.2 13 22.2 8.89999 29.1 8.89999C37.9 8.89999 45.2 15.5 46.1 23.9C46.1667 23.9 46.2 23.9 46.2 23.9C52.2 23.9 57 28.6 57 34.4C57 40.2 52.2 45 46.2 45" fill="url(#paint2_linear_5_236)"/>
<path d="M39.4 45C34.7 45 31 41.3 31 36.7C31 32.1 34.7 28.3 39.4 28.3C39.4 28.3 39.4333 28.3 39.5 28.3C41.2 24.6 45 22 49.4 22C54.9 22 59.5 26.2 60.1 31.5C60.1 31.5 60.1333 31.5 60.2 31.5C63.9 31.5 67 34.5 67 38.3C67 42 63.9 45 60.2 45" fill="white"/>
</svg>
