<svg width="63" height="41" viewBox="0 0 63 41" fill="none" xmlns="http://www.w3.org/2000/svg">
<defs>
<linearGradient id="paint0_linear_5_241" x1="0" y1="1681" x2="1681" y2="0" gradientUnits="userSpaceOnUse">
<stop stop-color="#FFBC27"/>
<stop offset="1" stop-color="#FDE252"/>
</linearGradient>
</defs>
<path d="M20.5 41C31.8218 41 41 31.8218 41 20.5C41 9.17816 31.8218 0 20.5 0C9.17816 0 0 9.17816 0 20.5C0 31.8218 9.17816 41 20.5 41Z" fill="url(#paint0_linear_5_241)"/>
<path d="M29.5 20.8H19.4C18.6 20.8 17.9 20.1 17.9 19.3C17.9 18.4 18.6 17.7 19.4 17.7H29.5C30.4 17.7 31.1 18.4 31.1 19.3C31.1 20.1 30.4 20.8 29.5 20.8ZM51.3 20.8H36.1C35.3 20.8 34.6 20.1 34.6 19.3C34.6 18.4 35.3 17.7 36.1 17.7H51.3C52.1 17.7 52.8 18.4 52.8 19.3C52.8 20.1 52.1 20.8 51.3 20.8ZM29.5 35.7H19.4C18.6 35.7 17.9 35 17.9 34.1C17.9 33.3 18.6 32.6 19.4 32.6H29.5C30.4 32.6 31.1 33.3 31.1 34.1C31.1 35 30.4 35.7 29.5 35.7V35.7ZM51.3 35.7H36.1C35.3 35.7 34.6 35 34.6 34.1C34.6 33.3 35.3 32.6 36.1 32.6H51.3C52.1 32.6 52.8 33.3 52.8 34.1C52.8 35 52.1 35.7 51.3 35.7ZM39.6 28.5H19.4C18.6 28.5 17.9 27.8 17.9 27C17.9 26.1 18.6 25.4 19.4 25.4H39.6C40.5 25.4 41.2 26.1 41.2 27C41.2 27.8 40.5 28.5 39.6 28.5ZM61.4 28.5H46.2C45.4 28.5 44.7 27.8 44.7 27C44.7 26.1 45.4 25.4 46.2 25.4H61.4C62.2 25.4 62.9 26.1 62.9 27C62.9 27.8 62.2 28.5 61.4 28.5Z" fill="white"/>
</svg>
