<svg width="67" height="74" viewBox="0 0 67 74" fill="none" xmlns="http://www.w3.org/2000/svg">
<defs>
<linearGradient id="paint0_linear_5_248" x1="1134.7" y1="835.21" x2="1972.8" y2="-1.13697" gradientUnits="userSpaceOnUse">
<stop stop-color="#00CCFF"/>
<stop offset="1" stop-color="#5DDEFE"/>
</linearGradient>
<linearGradient id="paint1_linear_5_248" x1="598.5" y1="1633.4" x2="1772" y2="-224.649" gradientUnits="userSpaceOnUse">
<stop stop-color="#D6F2FD"/>
<stop offset="1" stop-color="#E5F5FD"/>
</linearGradient>
<linearGradient id="paint2_linear_5_248" x1="631.483" y1="1656.4" x2="1015.74" y2="918.787" gradientUnits="userSpaceOnUse">
<stop stop-color="#00CCFF"/>
<stop offset="1" stop-color="#5DDEFE"/>
</linearGradient>
</defs>
<path d="M52.7 28.9C44.5 28.9 37.9 22.3 37.9 14.2C37.9 7.7 42.3 1.8 48.6 0C48.9 0 49.2 0 49.4 0.2C49.6 0.4 49.6 0.7 49.6 1C49.2 2.2 49 3.4 49 4.6C49 11.9 55 17.8 62.2 17.8C63.4667 17.8 64.7 17.6333 65.9 17.3C66.2 17.2 66.4 17.3 66.6 17.5C66.8 17.7 66.9 18 66.8 18.3C65 24.6 59.2 28.9 52.7 28.9V28.9Z" fill="url(#paint0_linear_5_248)"/>
<path d="M13.3 45C5.9 45 0 39.1 0 31.9C0 24.7 5.9 18.9 13.3 18.9C13.3667 18.9 13.4333 18.9 13.5 18.9C16.2 13 22.2 8.9 29.1 8.9C37.9 8.9 45.2 15.5 46.1 23.9C46.1667 23.9 46.2 23.9 46.2 23.9C52.2 23.9 57 28.6 57 34.4C57 40.2 52.2 45 46.2 45" fill="url(#paint1_linear_5_248)"/>
<path d="M39.4 45C34.7 45 31 41.3 31 36.7C31 32.1 34.7 28.3 39.4 28.3C39.4 28.3 39.4333 28.3 39.5 28.3C41.2 24.6 45 22 49.4 22C54.9 22 59.5 26.2 60.1 31.5C60.1 31.5 60.1333 31.5 60.2 31.5C63.9 31.5 67 34.5 67 38.3C67 42 63.9 45 60.2 45" fill="white"/>
<path d="M7.09999 67.7C6.76665 67.7 6.43332 67.6 6.09999 67.4C5.19999 66.9 4.89999 65.6 5.39999 64.6L11.9 53.2C12.4 52.2 13.6 51.9 14.6 52.5C15.5 53 15.8 54.3 15.3 55.2L8.89999 66.7C8.49999 67.3 7.79999 67.7 7.09999 67.7V67.7ZM14.2 73.9C13.8667 73.9 13.5333 73.8 13.2 73.6C12.3 73 11.9 71.8 12.5 70.8L22.4 53.2C22.9 52.2 24.1 51.9 25.1 52.5C26 53 26.3 54.3 25.8 55.2L15.9 72.8C15.5 73.5 14.9 73.9 14.2 73.9V73.9ZM38.7 66.8C38.3667 66.8 38.0333 66.7 37.7 66.5C36.8 66 36.4 64.7 37 63.8L42.9 53.2C43.5 52.2 44.7 51.9 45.6 52.5C46.6 53 46.9 54.3 46.4 55.2L40.4 65.8C40.1 66.5 39.4 66.8 38.7 66.8V66.8ZM26.9 70.3C26.5667 70.3 26.2667 70.2333 26 70.1C25 69.5 24.7 68.3 25.2 67.3L33.1 53.2C33.7 52.2 34.9 51.9 35.8 52.5C36.8 53 37.1 54.3 36.6 55.2L28.7 69.3C28.3 70 27.6 70.3 26.9 70.3Z" fill="url(#paint2_linear_5_248)"/>
</svg>
