<svg width="67" height="64" viewBox="0 0 67 64" fill="none" xmlns="http://www.w3.org/2000/svg">
<defs>
<linearGradient id="paint0_linear_5_244" x1="1381" y1="841" x2="1861.01" y2="89.6751" gradientUnits="userSpaceOnUse">
<stop stop-color="#D6F2FD"/>
<stop offset="1" stop-color="#E5F5FD"/>
</linearGradient>
<linearGradient id="paint1_linear_5_244" x1="631.483" y1="1429.32" x2="1015.74" y2="691.709" gradientUnits="userSpaceOnUse">
<stop stop-color="#00CCFF"/>
<stop offset="1" stop-color="#5DDEFE"/>
</linearGradient>
<clipPath id="clip0_5_244">
<rect width="67" height="64" fill="white"/>
</clipPath>
</defs>
<g clip-path="url(#clip0_5_244)">
<path d="M13.3 36C5.9 36 0 30.1 0 22.9C0 15.7 5.9 9.9 13.3 9.9C13.3667 9.9 13.4333 9.9 13.5 9.9C16.2 4 22.2 -0.0999985 29.1 -0.0999985C37.9 -0.0999985 45.2 6.5 46.1 14.9C46.1667 14.9 46.2 14.9 46.2 14.9C52.2 14.9 57 19.6 57 25.4C57 31.2 52.2 36 46.2 36" fill="white"/>
<path d="M39.4 36C34.7 36 31 32.3 31 27.7C31 23.1 34.7 19.3 39.4 19.3C39.4 19.3 39.4333 19.3 39.5 19.3C41.2 15.6 45 13 49.4 13C54.9 13 59.5 17.2 60.1 22.5C60.1 22.5 60.1333 22.5 60.2 22.5C63.9 22.5 67 25.5 67 29.3C67 33 63.9 36 60.2 36" fill="url(#paint0_linear_5_244)"/>
<path d="M7.09999 57.7C6.76665 57.7 6.43332 57.6 6.09999 57.4C5.19999 56.9 4.89999 55.6 5.39999 54.6L11.9 43.2C12.4 42.2 13.6 41.9 14.6 42.5C15.5 43 15.8 44.3 15.3 45.2L8.89999 56.7C8.49999 57.3 7.79999 57.7 7.09999 57.7V57.7ZM14.2 63.9C13.8667 63.9 13.5333 63.8 13.2 63.6C12.3 63 11.9 61.8 12.5 60.8L22.4 43.2C22.9 42.2 24.1 41.9 25.1 42.5C26 43 26.3 44.3 25.8 45.2L15.9 62.8C15.5 63.5 14.9 63.9 14.2 63.9V63.9ZM38.7 56.8C38.3667 56.8 38.0333 56.7 37.7 56.5C36.8 56 36.4 54.7 37 53.8L42.9 43.2C43.5 42.2 44.7 41.9 45.6 42.5C46.6 43 46.9 44.3 46.4 45.2L40.4 55.8C40.1 56.5 39.4 56.8 38.7 56.8V56.8ZM26.9 60.3C26.5667 60.3 26.2667 60.2333 26 60.1C25 59.5 24.7 58.3 25.2 57.3L33.1 43.2C33.7 42.2 34.9 41.9 35.8 42.5C36.8 43 37.1 44.3 36.6 45.2L28.7 59.3C28.3 60 27.6 60.3 26.9 60.3Z" fill="url(#paint1_linear_5_244)"/>
</g>
</svg>
