<svg width="67" height="68" viewBox="0 0 67 68" fill="none" xmlns="http://www.w3.org/2000/svg">
<defs>
<linearGradient id="paint0_linear_5_258" x1="725.681" y1="1773.55" x2="1299.96" y2="1294.37" gradientUnits="userSpaceOnUse">
<stop stop-color="#FFBC27"/>
<stop offset="1" stop-color="#FDE252"/>
</linearGradient>
<linearGradient id="paint1_linear_5_258" x1="1134.7" y1="835.21" x2="1972.8" y2="-1.13697" gradientUnits="userSpaceOnUse">
<stop stop-color="#00CCFF"/>
<stop offset="1" stop-color="#5DDEFE"/>
</linearGradient>
<linearGradient id="paint2_linear_5_258" x1="598.5" y1="1633.4" x2="1772" y2="-224.649" gradientUnits="userSpaceOnUse">
<stop stop-color="#D6F2FD"/>
<stop offset="1" stop-color="#E5F5FD"/>
</linearGradient>
<linearGradient id="paint3_linear_5_258" x1="131.413" y1="1113.91" x2="366.33" y2="793.777" gradientUnits="userSpaceOnUse">
<stop stop-color="#00CCFF"/>
<stop offset="1" stop-color="#5DDEFE"/>
</linearGradient>
</defs>
<path d="M45.3 41C46.9 41 47.6 42.2 46.8 43.6L43.8 48.7C43 50.1 43.7 51.2 45.4 51.1L52 50.8C53.7 50.7 54 51.5 52.7 52.6L35.3 66.9C34 68 33.6 67.6 34.4 66.2L39.2 57.3C40 55.8 39.3 54.7 37.6 54.9L33.3 55.2C31.7 55.3 31 54.2 31.8 52.8L37.1 43.6C37.9 42.2 40 41 41.6 41H45.3Z" fill="url(#paint0_linear_5_258)"/>
<path d="M52.7 28.9C44.5 28.9 37.9 22.3 37.9 14.2C37.9 7.7 42.3 1.8 48.6 0C48.9 0 49.2 0 49.4 0.2C49.6 0.4 49.6 0.7 49.6 1C49.2 2.2 49 3.4 49 4.6C49 11.9 55 17.8 62.2 17.8C63.4667 17.8 64.7 17.6333 65.9 17.3C66.2 17.2 66.4 17.3 66.6 17.5C66.8 17.7 66.9 18 66.8 18.3C65 24.6 59.2 28.9 52.7 28.9V28.9Z" fill="url(#paint1_linear_5_258)"/>
<path d="M13.3 45C5.9 45 0 39.1 0 31.9C0 24.7 5.9 18.9 13.3 18.9C13.3667 18.9 13.4333 18.9 13.5 18.9C16.2 13 22.2 8.9 29.1 8.9C37.9 8.9 45.2 15.5 46.1 23.9C46.1667 23.9 46.2 23.9 46.2 23.9C52.2 23.9 57 28.6 57 34.4C57 40.2 52.2 45 46.2 45" fill="url(#paint2_linear_5_258)"/>
<path d="M39.4 45C34.7 45 31 41.3 31 36.7C31 32.1 34.7 28.3 39.4 28.3C39.4 28.3 39.4333 28.3 39.5 28.3C41.2 24.6 45 22 49.4 22C54.9 22 59.5 26.2 60.1 31.5C60.1 31.5 60.1333 31.5 60.2 31.5C63.9 31.5 67 34.5 67 38.3C67 42 63.9 45 60.2 45" fill="white"/>
<path d="M5.2 67.7C4.86666 67.7 4.53333 67.6 4.2 67.4C3.2 66.8 2.9 65.6 3.4 64.6L10 53C10.6 52.1 11.8 51.7 12.8 52.3C13.7 52.9 14.1 54.1 13.5 55.1L6.9 66.6C6.6 67.3 5.9 67.7 5.2 67.7V67.7ZM15.9 67.7C15.5667 67.7 15.2333 67.6 14.9 67.4C14 66.8 13.6 65.6 14.2 64.6L20.8 53C21.3 52.1 22.6 51.7 23.5 52.3C24.5 52.9 24.8 54.1 24.3 55.1L17.7 66.6C17.3 67.3 16.6 67.7 15.9 67.7V67.7Z" fill="url(#paint3_linear_5_258)"/>
</svg>
