<svg width="67" height="44" viewBox="0 0 67 44" fill="none" xmlns="http://www.w3.org/2000/svg">
<defs>
<linearGradient id="paint0_linear_5_277" x1="1134.7" y1="835.21" x2="1972.8" y2="-1.13697" gradientUnits="userSpaceOnUse">
<stop stop-color="#00CCFF"/>
<stop offset="1" stop-color="#5DDEFE"/>
</linearGradient>
<linearGradient id="paint1_linear_5_277" x1="490.92" y1="61.02" x2="546.05" y2="5.89003" gradientUnits="userSpaceOnUse">
<stop stop-color="#FFBC27"/>
<stop offset="1" stop-color="#FDE252"/>
</linearGradient>
<linearGradient id="paint2_linear_5_277" x1="23.925" y1="65.32" x2="56.4122" y2="33.2603" gradientUnits="userSpaceOnUse">
<stop stop-color="#FFBC27"/>
<stop offset="1" stop-color="#FDE252"/>
</linearGradient>
<linearGradient id="paint3_linear_5_277" x1="598.5" y1="1596.3" x2="1772" y2="-261.749" gradientUnits="userSpaceOnUse">
<stop stop-color="#D6F2FD"/>
<stop offset="1" stop-color="#E5F5FD"/>
</linearGradient>
</defs>
<path d="M52.7 28.9C44.5 28.9 37.9 22.3 37.9 14.2C37.9 7.7 42.3 1.8 48.6 0C48.9 0 49.2 0 49.4 0.2C49.6 0.4 49.6 0.7 49.6 1C49.2 2.2 49 3.4 49 4.6C49 11.9 55 17.8 62.2 17.8C63.4667 17.8 64.7 17.6333 65.9 17.3C66.2 17.2 66.4 17.3 66.6 17.5C66.8 17.7 66.9 18 66.8 18.3C65 24.6 59.2 28.9 52.7 28.9V28.9Z" fill="url(#paint0_linear_5_277)"/>
<path d="M62.3 7.3C62 8.4 61.6 8.4 61.3 7.3C61 6.3 59.9 5.2 58.9 4.9C57.8 4.6 57.8 4.2 58.9 3.9C59.9 3.6 61 2.5 61.3 1.5C61.6 0.400003 62 0.400003 62.3 1.5C62.6 2.5 63.7 3.6 64.7 3.9C65.8 4.2 65.8 4.6 64.7 4.9C63.7 5.2 62.6 6.3 62.3 7.3V7.3Z" fill="url(#paint1_linear_5_277)"/>
<path d="M6.9 10C6.7 10.8 6.3 10.8 6.1 10C5.9 9.2 5 8.3 4.2 8.1C3.5 7.9 3.5 7.6 4.2 7.3C5 7.1 5.9 6.3 6.1 5.5C6.3 4.7 6.7 4.7 6.9 5.5C7.1 6.3 7.9 7.1 8.7 7.3C9.5 7.6 9.5 7.9 8.7 8.1C7.9 8.3 7.1 9.2 6.9 10V10Z" fill="url(#paint2_linear_5_277)"/>
<path d="M13.3 44C5.9 44 0 38.1 0 30.9C0 23.7 5.9 17.9 13.3 17.9C13.3667 17.9 13.4333 17.9 13.5 17.9C16.2 12 22.2 7.9 29.1 7.9C37.9 7.9 45.2 14.5 46.1 22.9C46.1667 22.9 46.2 22.9 46.2 22.9C52.2 22.9 57 27.6 57 33.4C57 39.2 52.2 44 46.2 44" fill="url(#paint3_linear_5_277)"/>
<path d="M39.4 44C34.7 44 31 40.3 31 35.7C31 31.1 34.7 27.3 39.4 27.3C39.4 27.3 39.4333 27.3 39.5 27.3C41.2 23.6 45 21 49.4 21C54.9 21 59.5 25.2 60.1 30.5C60.1 30.5 60.1333 30.5 60.2 30.5C63.9 30.5 67 33.5 67 37.3C67 41 63.9 44 60.2 44" fill="white"/>
</svg>
