<svg width="67" height="67" viewBox="0 0 67 67" fill="none" xmlns="http://www.w3.org/2000/svg">
<defs>
<linearGradient id="paint0_linear_5_287" x1="1134.7" y1="835.21" x2="1972.8" y2="-1.13697" gradientUnits="userSpaceOnUse">
<stop stop-color="#00CCFF"/>
<stop offset="1" stop-color="#5DDEFE"/>
</linearGradient>
<linearGradient id="paint1_linear_5_287" x1="598.5" y1="1596.3" x2="1772" y2="-261.749" gradientUnits="userSpaceOnUse">
<stop stop-color="#D6F2FD"/>
<stop offset="1" stop-color="#E5F5FD"/>
</linearGradient>
<linearGradient id="paint2_linear_5_287" x1="379.597" y1="1097.22" x2="572.581" y2="697.991" gradientUnits="userSpaceOnUse">
<stop stop-color="#00CCFF"/>
<stop offset="1" stop-color="#5DDEFE"/>
</linearGradient>
</defs>
<path d="M52.7 28.9C44.5 28.9 37.9 22.3 37.9 14.2C37.9 7.7 42.3 1.8 48.6 0C48.9 0 49.2 0 49.4 0.2C49.6 0.4 49.6 0.7 49.6 1C49.2 2.2 49 3.4 49 4.6C49 11.9 55 17.8 62.2 17.8C63.4667 17.8 64.7 17.6333 65.9 17.3C66.2 17.2 66.4 17.3 66.6 17.5C66.8 17.7 66.9 18 66.8 18.3C65 24.6 59.2 28.9 52.7 28.9V28.9Z" fill="url(#paint0_linear_5_287)"/>
<path d="M13.3 44C5.9 44 0 38.1 0 30.9C0 23.7 5.9 17.9 13.3 17.9C13.3667 17.9 13.4333 17.9 13.5 17.9C16.2 12 22.2 7.9 29.1 7.9C37.9 7.9 45.2 14.5 46.1 22.9C46.1667 22.9 46.2 22.9 46.2 22.9C52.2 22.9 57 27.6 57 33.4C57 39.2 52.2 44 46.2 44" fill="url(#paint1_linear_5_287)"/>
<path d="M39.4 44C34.7 44 31 40.3 31 35.7C31 31.1 34.7 27.3 39.4 27.3C39.4 27.3 39.4333 27.3 39.5 27.3C41.2 23.6 45 21 49.4 21C54.9 21 59.5 25.2 60.1 30.5C60.1 30.5 60.1333 30.5 60.2 30.5C63.9 30.5 67 33.5 67 37.3C67 41 63.9 44 60.2 44" fill="white"/>
<path d="M5.19999 66.7C4.86666 66.7 4.53332 66.6 4.19999 66.4C3.19999 65.8 2.89999 64.6 3.49999 63.6L9.89999 52C10.4 51.1 11.7 50.7 12.6 51.3C13.6 51.9 13.9 53.1 13.3 54.1L6.89999 65.6C6.49999 66.3 5.89999 66.7 5.19999 66.7V66.7ZM16.2 66.7C15.8667 66.7 15.5333 66.6 15.2 66.4C14.3 65.8 13.9 64.6 14.5 63.6L20.9 52C21.5 51.1 22.7 50.7 23.6 51.3C24.6 51.9 24.9 53.1 24.4 54.1L17.9 65.6C17.6 66.3 16.9 66.7 16.2 66.7V66.7ZM27.2 66.7C26.8667 66.7 26.5333 66.6 26.2 66.4C25.3 65.8 25 64.6 25.5 63.6L32 52C32.5 51.1 33.7 50.7 34.7 51.3C35.6 51.9 35.9 53.1 35.4 54.1L28.9 65.6C28.6 66.3 27.9 66.7 27.2 66.7V66.7Z" fill="url(#paint2_linear_5_287)"/>
</svg>
