<svg width="67" height="59" viewBox="0 0 67 59" fill="none" xmlns="http://www.w3.org/2000/svg">
<defs>
<linearGradient id="paint0_linear_5_283" x1="1381" y1="841" x2="1861.01" y2="89.6751" gradientUnits="userSpaceOnUse">
<stop stop-color="#D6F2FD"/>
<stop offset="1" stop-color="#E5F5FD"/>
</linearGradient>
<linearGradient id="paint1_linear_5_283" x1="413.046" y1="963.742" x2="606.03" y2="564.509" gradientUnits="userSpaceOnUse">
<stop stop-color="#00CCFF"/>
<stop offset="1" stop-color="#5DDEFE"/>
</linearGradient>
<clipPath id="clip0_5_283">
<rect width="67" height="59" fill="white"/>
</clipPath>
</defs>
<g clip-path="url(#clip0_5_283)">
<path d="M13.3 36C5.9 36 0 30.1 0 22.9C0 15.7 5.9 9.9 13.3 9.9C13.3667 9.9 13.4333 9.9 13.5 9.9C16.2 4 22.2 -0.0999985 29.1 -0.0999985C37.9 -0.0999985 45.2 6.5 46.1 14.9C46.1667 14.9 46.2 14.9 46.2 14.9C52.2 14.9 57 19.6 57 25.4C57 31.2 52.2 36 46.2 36" fill="white"/>
<path d="M39.4 36C34.7 36 31 32.3 31 27.7C31 23.1 34.7 19.3 39.4 19.3C39.4 19.3 39.4333 19.3 39.5 19.3C41.2 15.6 45 13 49.4 13C54.9 13 59.5 17.2 60.1 22.5C60.1 22.5 60.1333 22.5 60.2 22.5C63.9 22.5 67 25.5 67 29.3C67 33 63.9 36 60.2 36" fill="url(#paint0_linear_5_283)"/>
<path d="M6.19999 58.7C5.86666 58.7 5.53332 58.6 5.19999 58.4C4.19999 57.8 3.89999 56.6 4.49999 55.6L10.9 44C11.4 43.1 12.7 42.7 13.6 43.3C14.6 43.9 14.9 45.1 14.3 46.1L7.89999 57.6C7.49999 58.3 6.89999 58.7 6.19999 58.7ZM17.2 58.7C16.8667 58.7 16.5333 58.6 16.2 58.4C15.3 57.8 14.9 56.6 15.5 55.6L21.9 44C22.5 43.1 23.7 42.7 24.6 43.3C25.6 43.9 25.9 45.1 25.4 46.1L18.9 57.6C18.6 58.3 17.9 58.7 17.2 58.7ZM28.2 58.7C27.8667 58.7 27.5333 58.6 27.2 58.4C26.3 57.8 26 56.6 26.5 55.6L33 44C33.5 43.1 34.7 42.7 35.7 43.3C36.6 43.9 36.9 45.1 36.4 46.1L29.9 57.6C29.6 58.3 28.9 58.7 28.2 58.7V58.7Z" fill="url(#paint1_linear_5_283)"/>
</g>
</svg>
