<svg width="67" height="61" viewBox="0 0 67 61" fill="none" xmlns="http://www.w3.org/2000/svg">
<defs>
<linearGradient id="paint0_linear_5_297" x1="1104.76" y1="835.21" x2="1942.86" y2="-1.13694" gradientUnits="userSpaceOnUse">
<stop stop-color="#00CCFF"/>
<stop offset="1" stop-color="#5DDEFE"/>
</linearGradient>
<linearGradient id="paint1_linear_5_297" x1="598.5" y1="1596.3" x2="1772" y2="-261.749" gradientUnits="userSpaceOnUse">
<stop stop-color="#D6F2FD"/>
<stop offset="1" stop-color="#E5F5FD"/>
</linearGradient>
<linearGradient id="paint2_linear_5_297" x1="806.228" y1="582.53" x2="842.01" y2="437.52" gradientUnits="userSpaceOnUse">
<stop stop-color="#00CCFF"/>
<stop offset="1" stop-color="#5DDEFE"/>
</linearGradient>
</defs>
<path d="M51.7 28.9C43.5 28.9 36.9 22.3 36.9 14.2C36.9 7.7 41.3 1.8 47.6 0C47.9 0 48.2 0 48.4 0.2C48.6 0.4 48.6 0.7 48.6 1C48.2 2.2 48 3.4 48 4.6C48 11.9 54 17.8 61.2 17.8C62.4667 17.8 63.7 17.6333 64.9 17.3C65.2 17.2 65.4 17.3 65.6 17.5C65.8 17.7 65.9 18 65.8 18.3C64 24.6 58.2 28.9 51.7 28.9V28.9Z" fill="url(#paint0_linear_5_297)"/>
<path d="M13.3 44C5.9 44 0 38.1 0 30.9C0 23.7 5.9 17.9 13.3 17.9C13.3667 17.9 13.4333 17.9 13.5 17.9C16.2 12 22.2 7.9 29.1 7.9C37.9 7.9 45.2 14.5 46.1 22.9C46.1667 22.9 46.2 22.9 46.2 22.9C52.2 22.9 57 27.6 57 33.4C57 39.2 52.2 44 46.2 44" fill="url(#paint1_linear_5_297)"/>
<path d="M39.4 44C34.7 44 31 40.3 31 35.7C31 31.1 34.7 27.3 39.4 27.3C39.4 27.3 39.4333 27.3 39.5 27.3C41.2 23.6 45 21 49.4 21C54.9 21 59.5 25.2 60.1 30.5C60.1 30.5 60.1333 30.5 60.2 30.5C63.9 30.5 67 33.5 67 37.3C67 41 63.9 44 60.2 44" fill="white"/>
<path d="M11.2 60.7C10.8667 60.7 10.5333 60.6333 10.2 60.5C9.3 59.9 8.9 58.7 9.5 57.8L12.4 52.9C13 52 14.2 51.7 15.2 52.2C16.1 52.7 16.5 53.9 15.9 54.9L13 59.7C12.6 60.4 11.9 60.7 11.2 60.7V60.7ZM25 60.7C24.6667 60.7 24.3333 60.6333 24 60.5C23 59.9 22.7 58.7 23.2 57.8L26.1 52.9C26.7 52 27.9 51.7 28.9 52.2C29.9 52.7 30.2 53.9 29.6 54.9L26.7 59.7C26.3 60.4 25.7 60.7 25 60.7V60.7ZM39.7 60.7C39.3667 60.7 39.0333 60.6333 38.7 60.5C37.7 59.9 37.4 58.7 38 57.8L40.9 52.9C41.4 52 42.7 51.7 43.6 52.2C44.6 52.7 44.9 53.9 44.4 54.9L41.5 59.7C41.1 60.4 40.4 60.7 39.7 60.7V60.7Z" fill="url(#paint2_linear_5_297)"/>
</svg>
