<svg width="67" height="59" viewBox="0 0 67 59" fill="none" xmlns="http://www.w3.org/2000/svg">
<defs>
<linearGradient id="paint0_linear_5_292" x1="945" y1="676" x2="1621" y2="0" gradientUnits="userSpaceOnUse">
<stop stop-color="#FFBC27"/>
<stop offset="1" stop-color="#FDE252"/>
</linearGradient>
<linearGradient id="paint1_linear_5_292" x1="1381" y1="985" x2="1861.01" y2="233.675" gradientUnits="userSpaceOnUse">
<stop stop-color="#D6F2FD"/>
<stop offset="1" stop-color="#E5F5FD"/>
</linearGradient>
<linearGradient id="paint2_linear_5_292" x1="842.651" y1="563.048" x2="878.433" y2="418.038" gradientUnits="userSpaceOnUse">
<stop stop-color="#00CCFF"/>
<stop offset="1" stop-color="#5DDEFE"/>
</linearGradient>
</defs>
<path d="M48 26C55.1797 26 61 20.1797 61 13C61 5.8203 55.1797 0 48 0C40.8203 0 35 5.8203 35 13C35 20.1797 40.8203 26 48 26Z" fill="url(#paint0_linear_5_292)"/>
<path d="M13.3 42C5.9 42 0 36.1 0 28.9C0 21.7 5.9 15.9 13.3 15.9C13.3667 15.9 13.4333 15.9 13.5 15.9C16.2 10 22.2 5.9 29.1 5.9C37.9 5.9 45.2 12.5 46.1 20.9C46.1667 20.9 46.2 20.9 46.2 20.9C52.2 20.9 57 25.6 57 31.4C57 37.2 52.2 42 46.2 42" fill="white"/>
<path d="M39.4 42C34.7 42 31 38.3 31 33.7C31 29.1 34.7 25.3 39.4 25.3C39.4 25.3 39.4333 25.3 39.5 25.3C41.2 21.6 45 19 49.4 19C54.9 19 59.5 23.2 60.1 28.5C60.1 28.5 60.1333 28.5 60.2 28.5C63.9 28.5 67 31.5 67 35.3C67 39 63.9 42 60.2 42" fill="url(#paint1_linear_5_292)"/>
<path d="M12.2 58.7C11.8667 58.7 11.5333 58.6333 11.2 58.5C10.3 57.9 9.9 56.7 10.5 55.8L13.4 50.9C14 50 15.2 49.7 16.2 50.2C17.1 50.7 17.5 51.9 16.9 52.9L14 57.7C13.6 58.4 12.9 58.7 12.2 58.7V58.7ZM26 58.7C25.6667 58.7 25.3333 58.6333 25 58.5C24 57.9 23.7 56.7 24.2 55.8L27.1 50.9C27.7 50 28.9 49.7 29.9 50.2C30.9 50.7 31.2 51.9 30.6 52.9L27.7 57.7C27.3 58.4 26.7 58.7 26 58.7V58.7ZM40.7 58.7C40.3667 58.7 40.0333 58.6333 39.7 58.5C38.7 57.9 38.4 56.7 39 55.8L41.9 50.9C42.4 50 43.7 49.7 44.6 50.2C45.6 50.7 45.9 51.9 45.4 52.9L42.5 57.7C42.1 58.4 41.4 58.7 40.7 58.7V58.7Z" fill="url(#paint2_linear_5_292)"/>
</svg>
