<svg width="67" height="64" viewBox="0 0 67 64" fill="none" xmlns="http://www.w3.org/2000/svg">
<defs>
<linearGradient id="paint0_linear_5_302" x1="972" y1="676" x2="1648" y2="1.00732e-05" gradientUnits="userSpaceOnUse">
<stop stop-color="#FFBC27"/>
<stop offset="1" stop-color="#FDE252"/>
</linearGradient>
<linearGradient id="paint1_linear_5_302" x1="403.142" y1="1663.43" x2="977.421" y2="1184.24" gradientUnits="userSpaceOnUse">
<stop stop-color="#FFBC27"/>
<stop offset="1" stop-color="#FDE252"/>
</linearGradient>
<linearGradient id="paint2_linear_5_302" x1="1381" y1="961" x2="1861.01" y2="209.675" gradientUnits="userSpaceOnUse">
<stop stop-color="#D6F2FD"/>
<stop offset="1" stop-color="#E5F5FD"/>
</linearGradient>
</defs>
<path d="M49 26C56.1797 26 62 20.1797 62 13C62 5.8203 56.1797 0 49 0C41.8203 0 36 5.8203 36 13C36 20.1797 41.8203 26 49 26Z" fill="url(#paint0_linear_5_302)"/>
<path d="M31.3 37C32.9 37 33.6 38.2 32.8 39.6L29.8 44.7C29 46.1 29.7 47.2 31.4 47.1L38 46.8C39.7 46.7 40 47.5 38.7 48.6L21.3 62.9C20 64 19.6 63.6 20.4 62.2L25.2 53.3C26 51.8 25.3 50.7 23.6 50.9L19.3 51.2C17.7 51.3 17 50.2 17.8 48.8L23.1 39.6C23.9 38.2 26 37 27.6 37H31.3Z" fill="url(#paint1_linear_5_302)"/>
<path d="M13.3 41C5.9 41 0 35.1 0 27.9C0 20.7 5.9 14.9 13.3 14.9C13.3667 14.9 13.4333 14.9 13.5 14.9C16.2 9 22.2 4.9 29.1 4.9C37.9 4.9 45.2 11.5 46.1 19.9C46.1667 19.9 46.2 19.9 46.2 19.9C52.2 19.9 57 24.6 57 30.4C57 36.2 52.2 41 46.2 41" fill="white"/>
<path d="M39.4 41C34.7 41 31 37.3 31 32.7C31 28.1 34.7 24.3 39.4 24.3C39.4 24.3 39.4333 24.3 39.5 24.3C41.2 20.6 45 18 49.4 18C54.9 18 59.5 22.2 60.1 27.5C60.1 27.5 60.1333 27.5 60.2 27.5C63.9 27.5 67 30.5 67 34.3C67 38 63.9 41 60.2 41" fill="url(#paint2_linear_5_302)"/>
</svg>
