<svg width="67" height="60" viewBox="0 0 67 60" fill="none" xmlns="http://www.w3.org/2000/svg">
<defs>
<linearGradient id="paint0_linear_5_314" x1="403.142" y1="1553.3" x2="977.421" y2="1074.11" gradientUnits="userSpaceOnUse">
<stop stop-color="#FFBC27"/>
<stop offset="1" stop-color="#FDE252"/>
</linearGradient>
<linearGradient id="paint1_linear_5_314" x1="1381" y1="841" x2="1861.01" y2="89.6751" gradientUnits="userSpaceOnUse">
<stop stop-color="#D6F2FD"/>
<stop offset="1" stop-color="#E5F5FD"/>
</linearGradient>
<clipPath id="clip0_5_314">
<rect width="67" height="60" fill="white"/>
</clipPath>
</defs>
<g clip-path="url(#clip0_5_314)">
<path d="M31.3 33C32.9 33 33.6 34.2 32.8 35.6L29.8 40.7C29 42.1 29.7 43.2 31.4 43.1L38 42.8C39.7 42.7 40 43.5 38.7 44.6L21.3 58.9C20 60 19.6 59.6 20.4 58.2L25.2 49.3C26 47.8 25.3 46.7 23.6 46.9L19.3 47.2C17.7 47.3 17 46.2 17.8 44.8L23.1 35.6C23.9 34.2 26 33 27.6 33H31.3Z" fill="url(#paint0_linear_5_314)"/>
<path d="M13.3 36C5.9 36 0 30.1 0 22.9C0 15.7 5.9 9.9 13.3 9.9C13.3667 9.9 13.4333 9.9 13.5 9.9C16.2 4 22.2 -0.0999985 29.1 -0.0999985C37.9 -0.0999985 45.2 6.5 46.1 14.9C46.1667 14.9 46.2 14.9 46.2 14.9C52.2 14.9 57 19.6 57 25.4C57 31.2 52.2 36 46.2 36" fill="white"/>
<path d="M39.4 36C34.7 36 31 32.3 31 27.7C31 23.1 34.7 19.3 39.4 19.3C39.4 19.3 39.4333 19.3 39.5 19.3C41.2 15.6 45 13 49.4 13C54.9 13 59.5 17.2 60.1 22.5C60.1 22.5 60.1333 22.5 60.2 22.5C63.9 22.5 67 25.5 67 29.3C67 33 63.9 36 60.2 36" fill="url(#paint1_linear_5_314)"/>
</g>
</svg>
