<svg width="67" height="65" viewBox="0 0 67 65" fill="none" xmlns="http://www.w3.org/2000/svg">
<defs>
<linearGradient id="paint0_linear_5_323" x1="1381" y1="841" x2="1861.01" y2="89.6751" gradientUnits="userSpaceOnUse">
<stop stop-color="#D6F2FD"/>
<stop offset="1" stop-color="#E5F5FD"/>
</linearGradient>
<linearGradient id="paint1_linear_5_323" x1="93.9376" y1="1447.69" x2="558.43" y2="990.319" gradientUnits="userSpaceOnUse">
<stop stop-color="#00CCFF"/>
<stop offset="1" stop-color="#5DDEFE"/>
</linearGradient>
<linearGradient id="paint2_linear_5_323" x1="623" y1="1376.32" x2="1060.1" y2="897.597" gradientUnits="userSpaceOnUse">
<stop stop-color="#D6F2FD"/>
<stop offset="1" stop-color="#E5F5FD"/>
</linearGradient>
<clipPath id="clip0_5_323">
<rect width="67" height="65" fill="white"/>
</clipPath>
</defs>
<g clip-path="url(#clip0_5_323)">
<path d="M13.3 36C5.9 36 0 30.1 0 22.9C0 15.7 5.9 9.89999 13.3 9.89999C13.3667 9.89999 13.4333 9.89999 13.5 9.89999C16.2 3.99999 22.2 -0.100006 29.1 -0.100006C37.9 -0.100006 45.2 6.49999 46.1 14.9C46.1667 14.9 46.2 14.9 46.2 14.9C52.2 14.9 57 19.6 57 25.4C57 31.2 52.2 36 46.2 36" fill="white"/>
<path d="M39.4 36C34.7 36 31 32.3 31 27.7C31 23.1 34.7 19.3 39.4 19.3C39.4 19.3 39.4333 19.3 39.5 19.3C41.2 15.6 45 13 49.4 13C54.9 13 59.5 17.2 60.1 22.5C60.1 22.5 60.1333 22.5 60.2 22.5C63.9 22.5 67 25.5 67 29.3C67 33 63.9 36 60.2 36" fill="url(#paint0_linear_5_323)"/>
<path d="M6.2 58.7C5.86666 58.7 5.53333 58.6 5.2 58.4C4.2 57.9 3.9 56.6 4.4 55.6L11 44.2C11.6 43.2 12.8 42.9 13.8 43.5C14.7 44 15.1 45.3 14.5 46.2L7.9 57.7C7.6 58.3 6.9 58.7 6.2 58.7V58.7ZM13.4 64.9C13.0667 64.9 12.7333 64.8 12.4 64.6C11.4 64 11.1 62.8 11.7 61.8L21.8 44.2C22.3 43.2 23.6 42.9 24.5 43.5C25.5 44 25.8 45.3 25.3 46.2L15.2 63.8C14.8 64.5 14.1 64.9 13.4 64.9Z" fill="url(#paint1_linear_5_323)"/>
<path d="M36 42.9C37.1 42.9 38 43.8 38 44.9C38 46 37.1 46.9 36 46.9C34.9 46.9 34 46 34 44.9C34 43.8 34.9 42.9 36 42.9ZM46 42.9C47.1 42.9 48 43.8 48 44.9C48 46 47.1 46.9 46 46.9C44.9 46.9 44 46 44 44.9C44 43.8 44.9 42.9 46 42.9ZM29 61.8C29 62.9 28.1 63.8 27 63.8C25.9 63.8 25 62.9 25 61.8C25 60.7 25.9 59.8 27 59.8C28.1 59.8 29 60.7 29 61.8ZM30 53.2C30 52 30.9 51.1 32 51.1C33.1 51.1 34 52 34 53.2C34 54.3 33.1 55.2 32 55.2C30.9 55.2 30 54.3 30 53.2ZM44 53.2C44 54.3 43.1 55.2 42 55.2C40.9 55.2 40 54.3 40 53.2C40 52 40.9 51.1 42 51.1C43.1 51.1 44 52 44 53.2Z" fill="url(#paint2_linear_5_323)"/>
</g>
</svg>
