<svg width="67" height="73" viewBox="0 0 67 73" fill="none" xmlns="http://www.w3.org/2000/svg">
<defs>
<linearGradient id="paint0_linear_5_328" x1="1134.7" y1="835.21" x2="1972.8" y2="-1.13697" gradientUnits="userSpaceOnUse">
<stop stop-color="#00CCFF"/>
<stop offset="1" stop-color="#5DDEFE"/>
</linearGradient>
<linearGradient id="paint1_linear_5_328" x1="598.5" y1="1596.3" x2="1772" y2="-261.749" gradientUnits="userSpaceOnUse">
<stop stop-color="#D6F2FD"/>
<stop offset="1" stop-color="#E5F5FD"/>
</linearGradient>
<linearGradient id="paint2_linear_5_328" x1="71.5626" y1="1629.35" x2="536.055" y2="1171.98" gradientUnits="userSpaceOnUse">
<stop stop-color="#00CCFF"/>
<stop offset="1" stop-color="#5DDEFE"/>
</linearGradient>
<linearGradient id="paint3_linear_5_328" x1="599" y1="1551.52" x2="1036.1" y2="1072.8" gradientUnits="userSpaceOnUse">
<stop stop-color="#D6F2FD"/>
<stop offset="1" stop-color="#E5F5FD"/>
</linearGradient>
</defs>
<path d="M52.7 28.9C44.5 28.9 37.9 22.3 37.9 14.2C37.9 7.7 42.3 1.8 48.6 0C48.9 0 49.2 0 49.4 0.2C49.6 0.4 49.6 0.7 49.6 1C49.2 2.2 49 3.4 49 4.6C49 11.9 55 17.8 62.2 17.8C63.4667 17.8 64.7 17.6333 65.9 17.3C66.2 17.2 66.4 17.3 66.6 17.5C66.8 17.7 66.9 18 66.8 18.3C65 24.6 59.2 28.9 52.7 28.9V28.9Z" fill="url(#paint0_linear_5_328)"/>
<path d="M13.3 44C5.9 44 0 38.1 0 30.9C0 23.7 5.9 17.9 13.3 17.9C13.3667 17.9 13.4333 17.9 13.5 17.9C16.2 12 22.2 7.89999 29.1 7.89999C37.9 7.89999 45.2 14.5 46.1 22.9C46.1667 22.9 46.2 22.9 46.2 22.9C52.2 22.9 57 27.6 57 33.4C57 39.2 52.2 44 46.2 44" fill="url(#paint1_linear_5_328)"/>
<path d="M39.4 44C34.7 44 31 40.3 31 35.7C31 31.1 34.7 27.3 39.4 27.3C39.4 27.3 39.4333 27.3 39.5 27.3C41.2 23.6 45 21 49.4 21C54.9 21 59.5 25.2 60.1 30.5C60.1 30.5 60.1333 30.5 60.2 30.5C63.9 30.5 67 33.5 67 37.3C67 41 63.9 44 60.2 44" fill="white"/>
<path d="M5.2 66.7C4.86667 66.7 4.53334 66.6 4.2 66.4C3.2 65.9 2.9 64.6 3.4 63.6L10 52.2C10.6 51.2 11.8 50.9 12.8 51.5C13.7 52 14.1 53.3 13.5 54.2L6.9 65.7C6.6 66.3 5.9 66.7 5.2 66.7V66.7ZM12.4 72.9C12.0667 72.9 11.7333 72.8 11.4 72.6C10.4 72 10.1 70.8 10.7 69.8L20.8 52.2C21.3 51.2 22.6 50.9 23.5 51.5C24.5 52 24.8 53.3 24.3 54.2L14.2 71.8C13.8 72.5 13.1 72.9 12.4 72.9Z" fill="url(#paint2_linear_5_328)"/>
<path d="M35 50.9C36.1 50.9 37 51.8 37 52.9C37 54 36.1 54.9 35 54.9C33.9 54.9 33 54 33 52.9C33 51.8 33.9 50.9 35 50.9ZM45 50.9C46.1 50.9 47 51.8 47 52.9C47 54 46.1 54.9 45 54.9C43.9 54.9 43 54 43 52.9C43 51.8 43.9 50.9 45 50.9ZM28 69.8C28 70.9 27.1 71.8 26 71.8C24.9 71.8 24 70.9 24 69.8C24 68.7 24.9 67.8 26 67.8C27.1 67.8 28 68.7 28 69.8ZM29 61.2C29 60 29.9 59.1 31 59.1C32.1 59.1 33 60 33 61.2C33 62.3 32.1 63.2 31 63.2C29.9 63.2 29 62.3 29 61.2ZM43 61.2C43 62.3 42.1 63.2 41 63.2C39.9 63.2 39 62.3 39 61.2C39 60 39.9 59.1 41 59.1C42.1 59.1 43 60 43 61.2Z" fill="url(#paint3_linear_5_328)"/>
</svg>
