<svg width="70" height="39" viewBox="0 0 70 39" fill="none" xmlns="http://www.w3.org/2000/svg">
<defs>
<linearGradient id="paint0_linear_5_334" x1="794.2" y1="588.1" x2="1118.2" y2="264.1" gradientUnits="userSpaceOnUse">
<stop stop-color="#D6F2FD"/>
<stop offset="1" stop-color="#E5F5FD"/>
</linearGradient>
<clipPath id="clip0_5_334">
<rect width="70" height="39" fill="white"/>
</clipPath>
</defs>
<g clip-path="url(#clip0_5_334)">
<path d="M13.5 32C20.9558 32 27 25.9558 27 18.5C27 11.0442 20.9558 5 13.5 5C6.04416 5 0 11.0442 0 18.5C0 25.9558 6.04416 32 13.5 32Z" fill="#DFF5FE"/>
<path d="M32.5 39C39.4036 39 45 33.4036 45 26.5C45 19.5964 39.4036 14 32.5 14C25.5964 14 20 19.5964 20 26.5C20 33.4036 25.5964 39 32.5 39Z" fill="white"/>
<path d="M48.5 23C54.299 23 59 18.299 59 12.5C59 6.70101 54.299 2 48.5 2C42.701 2 38 6.70101 38 12.5C38 18.299 42.701 23 48.5 23Z" fill="white"/>
<path d="M60.8 28.9C65.7706 28.9 69.8 24.8706 69.8 19.9C69.8 14.9294 65.7706 10.9 60.8 10.9C55.8294 10.9 51.8 14.9294 51.8 19.9C51.8 24.8706 55.8294 28.9 60.8 28.9Z" fill="white"/>
<path d="M30.9 19.9C36.4228 19.9 40.9 15.4228 40.9 9.89999C40.9 4.37715 36.4228 -0.100006 30.9 -0.100006C25.3772 -0.100006 20.9 4.37715 20.9 9.89999C20.9 15.4228 25.3772 19.9 30.9 19.9Z" fill="#DFF5FE"/>
<path d="M50.8 31.9C55.7706 31.9 59.8 27.8706 59.8 22.9C59.8 17.9294 55.7706 13.9 50.8 13.9C45.8294 13.9 41.8 17.9294 41.8 22.9C41.8 27.8706 45.8294 31.9 50.8 31.9Z" fill="url(#paint0_linear_5_334)"/>
</g>
</svg>
