<svg width="68" height="75" viewBox="0 0 68 75" fill="none" xmlns="http://www.w3.org/2000/svg">
<defs>
<linearGradient id="paint0_linear_5_345" x1="1164.64" y1="835.21" x2="2002.74" y2="-1.13695" gradientUnits="userSpaceOnUse">
<stop stop-color="#00CCFF"/>
<stop offset="1" stop-color="#5DDEFE"/>
</linearGradient>
<linearGradient id="paint1_linear_5_345" x1="598.5" y1="1670.5" x2="1772" y2="-187.549" gradientUnits="userSpaceOnUse">
<stop stop-color="#D6F2FD"/>
<stop offset="1" stop-color="#E5F5FD"/>
</linearGradient>
<linearGradient id="paint2_linear_5_345" x1="610.5" y1="1552.9" x2="935.331" y2="919.48" gradientUnits="userSpaceOnUse">
<stop stop-color="#D6F2FD"/>
<stop offset="1" stop-color="#E5F5FD"/>
</linearGradient>
</defs>
<path d="M53.7 28.9C45.5 28.9 38.9 22.3 38.9 14.2C38.9 7.7 43.3 1.8 49.6 0C49.9 0 50.2 0 50.4 0.2C50.6 0.4 50.6 0.7 50.6 1C50.2 2.2 50 3.4 50 4.6C50 11.9 56 17.8 63.2 17.8C64.4667 17.8 65.7 17.6333 66.9 17.3C67.2 17.2 67.4 17.3 67.6 17.5C67.8 17.7 67.9 18 67.8 18.3C66 24.6 60.2 28.9 53.7 28.9V28.9Z" fill="url(#paint0_linear_5_345)"/>
<path d="M13.3 46C5.9 46 0 40.1 0 32.9C0 25.7 5.9 19.9 13.3 19.9C13.3667 19.9 13.4333 19.9 13.5 19.9C16.2 14 22.2 9.89999 29.1 9.89999C37.9 9.89999 45.2 16.5 46.1 24.9C46.1667 24.9 46.2 24.9 46.2 24.9C52.2 24.9 57 29.6 57 35.4C57 41.2 52.2 46 46.2 46" fill="url(#paint1_linear_5_345)"/>
<path d="M39.4 46C34.7 46 31 42.3 31 37.7C31 33.1 34.7 29.3 39.4 29.3C39.4 29.3 39.4333 29.3 39.5 29.3C41.2 25.6 45 23 49.4 23C54.9 23 59.5 27.2 60.1 32.5C60.1 32.5 60.1333 32.5 60.2 32.5C63.9 32.5 67 35.5 67 39.3C67 43 63.9 46 60.2 46" fill="white"/>
<path d="M15 56.9C15 58 14.1 58.9 13 58.9C11.9 58.9 11 58 11 56.9C11 55.8 11.9 54.9 13 54.9C14.1 54.9 15 55.8 15 56.9ZM25 56.9C25 58 24.1 58.9 23 58.9C21.9 58.9 21 58 21 56.9C21 55.8 21.9 54.9 23 54.9C24.1 54.9 25 55.8 25 56.9ZM35 56.9C35 58 34.1 58.9 33 58.9C31.9 58.9 31 58 31 56.9C31 55.8 31.9 54.9 33 54.9C34.1 54.9 35 55.8 35 56.9ZM45 56.9C45 58 44.1 58.9 43 58.9C41.9 58.9 41 58 41 56.9C41 55.8 41.9 54.9 43 54.9C44.1 54.9 45 55.8 45 56.9ZM15 73C15 74.1 14.1 74.9 13 74.9C11.9 74.9 11 74.1 11 73C11 71.9 11.9 71 13 71C14.1 71 15 71.9 15 73ZM25 73C25 74.1 24.1 74.9 23 74.9C21.9 74.9 21 74.1 21 73C21 71.9 21.9 71 23 71C24.1 71 25 71.9 25 73ZM35 73C35 74.1 34.1 74.9 33 74.9C31.9 74.9 31 74.1 31 73C31 71.9 31.9 71 33 71C34.1 71 35 71.9 35 73ZM45 73C45 74.1 44.1 74.9 43 74.9C41.9 74.9 41 74.1 41 73C41 71.9 41.9 71 43 71C44.1 71 45 71.9 45 73ZM10 65.1C10 66.2 9.1 67 8 67C6.9 67 6 66.2 6 65.1C6 64 6.9 63.1 8 63.1C9.1 63.1 10 64 10 65.1ZM20 65.1C20 66.2 19.1 67 18 67C16.9 67 16 66.2 16 65.1C16 64 16.9 63.1 18 63.1C19.1 63.1 20 64 20 65.1ZM30 65.1C30 66.2 29.1 67 28 67C26.9 67 26 66.2 26 65.1C26 64 26.9 63.1 28 63.1C29.1 63.1 30 64 30 65.1ZM40 65.1C40 66.2 39.1 67 38 67C36.9 67 36 66.2 36 65.1C36 64 36.9 63.1 38 63.1C39.1 63.1 40 64 40 65.1Z" fill="url(#paint2_linear_5_345)"/>
</svg>
