<svg width="67" height="65" viewBox="0 0 67 65" fill="none" xmlns="http://www.w3.org/2000/svg">
<defs>
<linearGradient id="paint0_linear_5_341" x1="1381" y1="841" x2="1861.01" y2="89.6751" gradientUnits="userSpaceOnUse">
<stop stop-color="#D6F2FD"/>
<stop offset="1" stop-color="#E5F5FD"/>
</linearGradient>
<linearGradient id="paint1_linear_5_341" x1="610.5" y1="1342.9" x2="935.331" y2="709.48" gradientUnits="userSpaceOnUse">
<stop stop-color="#D6F2FD"/>
<stop offset="1" stop-color="#E5F5FD"/>
</linearGradient>
<clipPath id="clip0_5_341">
<rect width="67" height="65" fill="white"/>
</clipPath>
</defs>
<g clip-path="url(#clip0_5_341)">
<path d="M13.3 36C5.9 36 0 30.1 0 22.9C0 15.7 5.9 9.89999 13.3 9.89999C13.3667 9.89999 13.4333 9.89999 13.5 9.89999C16.2 3.99999 22.2 -0.100006 29.1 -0.100006C37.9 -0.100006 45.2 6.49999 46.1 14.9C46.1667 14.9 46.2 14.9 46.2 14.9C52.2 14.9 57 19.6 57 25.4C57 31.2 52.2 36 46.2 36" fill="white"/>
<path d="M39.4 36C34.7 36 31 32.3 31 27.7C31 23.1 34.7 19.3 39.4 19.3C39.4 19.3 39.4333 19.3 39.5 19.3C41.2 15.6 45 13 49.4 13C54.9 13 59.5 17.2 60.1 22.5C60.1 22.5 60.1333 22.5 60.2 22.5C63.9 22.5 67 25.5 67 29.3C67 33 63.9 36 60.2 36" fill="url(#paint0_linear_5_341)"/>
<path d="M15 46.9C15 48 14.1 48.9 13 48.9C11.9 48.9 11 48 11 46.9C11 45.8 11.9 44.9 13 44.9C14.1 44.9 15 45.8 15 46.9ZM25 46.9C25 48 24.1 48.9 23 48.9C21.9 48.9 21 48 21 46.9C21 45.8 21.9 44.9 23 44.9C24.1 44.9 25 45.8 25 46.9ZM35 46.9C35 48 34.1 48.9 33 48.9C31.9 48.9 31 48 31 46.9C31 45.8 31.9 44.9 33 44.9C34.1 44.9 35 45.8 35 46.9ZM45 46.9C45 48 44.1 48.9 43 48.9C41.9 48.9 41 48 41 46.9C41 45.8 41.9 44.9 43 44.9C44.1 44.9 45 45.8 45 46.9ZM15 63C15 64.1 14.1 64.9 13 64.9C11.9 64.9 11 64.1 11 63C11 61.9 11.9 61 13 61C14.1 61 15 61.9 15 63V63ZM25 63C25 64.1 24.1 64.9 23 64.9C21.9 64.9 21 64.1 21 63C21 61.9 21.9 61 23 61C24.1 61 25 61.9 25 63V63ZM35 63C35 64.1 34.1 64.9 33 64.9C31.9 64.9 31 64.1 31 63C31 61.9 31.9 61 33 61C34.1 61 35 61.9 35 63V63ZM45 63C45 64.1 44.1 64.9 43 64.9C41.9 64.9 41 64.1 41 63C41 61.9 41.9 61 43 61C44.1 61 45 61.9 45 63V63ZM10 55.1C10 56.2 9.1 57 8 57C6.9 57 6 56.2 6 55.1C6 54 6.9 53.1 8 53.1C9.1 53.1 10 54 10 55.1ZM20 55.1C20 56.2 19.1 57 18 57C16.9 57 16 56.2 16 55.1C16 54 16.9 53.1 18 53.1C19.1 53.1 20 54 20 55.1ZM30 55.1C30 56.2 29.1 57 28 57C26.9 57 26 56.2 26 55.1C26 54 26.9 53.1 28 53.1C29.1 53.1 30 54 30 55.1ZM40 55.1C40 56.2 39.1 57 38 57C36.9 57 36 56.2 36 55.1C36 54 36.9 53.1 38 53.1C39.1 53.1 40 54 40 55.1Z" fill="url(#paint1_linear_5_341)"/>
</g>
</svg>
